<?xml version="1.0" encoding="utf-8"?>
<!-- Generator: Adobe Illustrator 19.0.0, SVG Export Plug-In . SVG Version: 6.00 Build 0)  -->
<svg version="1.1" id="Layer_1" xmlns="http://www.w3.org/2000/svg" xmlns:xlink="http://www.w3.org/1999/xlink" x="0px" y="0px"
	 width="1024px" height="768px" viewBox="0 0 1024 768" enable-background="new 0 0 1024 768" xml:space="preserve">
<g>
	<path d="M761.2,552.3L731.4,475c-1.6-4.2-7.5-4.3-9.3-0.2l-13.5,31.8c-0.1,0.2-0.2,0.5-0.2,0.8v29.8c0,0.8,0.5,1.5,1.2,1.8
		l44.8,19.7C758.6,560.5,762.8,556.5,761.2,552.3z"/>
	<path d="M686.8,561.1V665h238V561.1h-9.4c-2.7,0-5.4,0.6-7.9,1.7l-93.7,42.8c-5.1,2.3-10.9,2.3-16-0.1l-90.2-42.6
		c-2.5-1.2-5.3-1.8-8.1-1.8H686.8z"/>
</g>
<path d="M694,122v104.5h9.1c2.9,0,5.6-1.9,6.6-4.6c18-49,65-83.9,120.2-83.9c68.5,0,124.5,53.9,127.8,121.6c0.2,3.6,3.1,6.5,6.8,6.6
	l1.2,0V122H694z"/>
</svg>
